<?xml version="1.0" ?><svg id="Layer_1" style="enable-background:new 0 0 48 48;" version="1.1" viewBox="0 0 48 48" xml:space="preserve" xmlns="http://www.w3.org/2000/svg" xmlns:xlink="http://www.w3.org/1999/xlink"><style type="text/css">
	.st0{fill:#F9B17B;}
	.st1{fill:#F9AE7B;}
	.st2{opacity:0.5;}
	.st3{fill:#F69164;}
	.st4{fill:#603813;}
	.st5{fill:#3B2314;}
	.st6{fill:#FFFFFF;}
	.st7{fill:#009345;}
	.st8{fill:#F8B677;}
	.st9{fill:#8A5D3B;}
	.st10{fill:#A87C4F;}
	.st11{fill:#321B0F;}
	.st12{fill:#404041;}
	.st13{fill:#929497;}
	.st14{fill:#754C28;}
	.st15{fill:#009687;}
	.st16{fill:#C3996B;}
	.st17{fill:#FAAF40;}
	.st18{fill:#E89E3C;}
	.st19{fill:#D0D2D3;}
	.st20{fill:#58595B;}
	.st21{fill:#EAA476;}
	.st22{fill:#E29C75;}
	.st23{fill:#D5855B;}
	.st24{fill:#F05A28;}
	.st25{fill:#F6921E;}
	.st26{fill:#783340;}
	.st27{fill:#843A42;}
	.st28{fill:#6D6E70;}
	.st29{fill:#EE4036;}
	.st30{fill:#FDED16;}
	.st31{fill:#231F20;}
	.st32{fill:#885A3D;}
	.st33{fill:#5C3418;}
	.st34{fill:#C49291;}
	.st35{fill:#262261;}
	.st36{fill:#E6E7E8;}
</style><g><g><g><g><path class="st0" d="M35.68,23.46H12.3c-1.29,0-2.34-1.05-2.34-2.34v-0.55c0-1.29,1.05-2.34,2.34-2.34h23.38      c1.29,0,2.34,1.05,2.34,2.34v0.55C38.02,22.41,36.97,23.46,35.68,23.46z"/></g><g><rect class="st1" height="5.39" width="5.94" x="21.13" y="30.92"/></g><g class="st2"><path class="st3" d="M24.66,26.37c-0.1-0.03-0.2-0.06-0.3-0.08c-0.65-0.02-1.3,0-1.95,0.05c-0.43,0.08-0.86,0.17-1.28,0.26v6.58      c0.88,0.26,1.6,0.36,2,0.41c0.38,0.05,0.81,0.08,1.3,0.06c0.42-0.01,0.81-0.05,1.14-0.11c0.3-0.04,0.85-0.13,1.53-0.34      c0-0.04,0-0.08,0-0.12v-6.34C26.26,26.72,25.44,26.6,24.66,26.37z"/></g><g><path class="st0" d="M25.53,32.08c-0.34,0.05-0.74,0.1-1.17,0.11c-0.5,0.01-0.94-0.02-1.33-0.06c-1.04-0.11-4.22-0.59-6.72-3.17      c-0.48-0.49-1.74-1.82-2.41-3.98c-0.28-0.91-0.44-1.88-0.44-2.89v-7.47c0-5.36,4.35-9.71,9.71-9.71h1.62      c5.36,0,9.71,4.35,9.71,9.71v7.47c-0.02,0.8-0.21,4.09-2.84,6.87C29.28,31.47,26.39,31.97,25.53,32.08z"/></g></g><g><path class="st9" d="M24.62,25.3c-0.02,0-0.03,0-0.05,0c-1.69-0.35-2.46-0.74-2.48-1.26c-0.02-0.35,0.29-0.55,0.62-0.77     c0.29-0.19,0.64-0.42,0.9-0.8c0.4-0.62,0.45-1.48,0.14-2.58c-0.04-0.13,0.04-0.26,0.16-0.29c0.13-0.04,0.26,0.04,0.29,0.16     c0.35,1.23,0.28,2.23-0.2,2.97c-0.31,0.46-0.72,0.74-1.03,0.94c-0.18,0.12-0.41,0.27-0.4,0.35c0,0.02,0.04,0.4,2.11,0.82     c0.13,0.03,0.21,0.15,0.18,0.28C24.83,25.23,24.73,25.3,24.62,25.3z"/></g><g><ellipse class="st11" cx="29.73" cy="20.91" rx="1.08" ry="1.69"/></g><g><ellipse class="st11" cx="18.86" cy="20.91" rx="1.08" ry="1.69"/></g><g><path class="st6" d="M25.7,27.25c-1.36,0.21-2.4,0.05-2.67,0c-0.61-0.11-1.12-0.27-1.49-0.41c0.15,0.32,0.47,0.9,1.12,1.32     c1.05,0.67,2.38,0.55,3.32,0.01c0.71-0.4,1.09-0.99,1.27-1.31C26.66,27.06,26.13,27.18,25.7,27.25z"/></g><g><path class="st17" d="M38.26,9.81c-0.27-1.36-1.92-2.24-3.22-2.44c-0.63-0.09-1.28-0.04-1.92,0.12c-1.07-0.22-1.77-0.6-2.24-1.01     c-0.08-0.36-0.21-0.73-0.4-1.1c-1.36-2.67-4.76-3-5.26-3.05c-3.58-0.35-8.02,1.88-9.19,5.29c-0.85,0.13-2.11,0.85-2.99,1.72     c-1.83,1.81-1.99,4.23-2.05,5.16c-0.06,0.96-0.21,3.3,1.3,4.9c0.51,0.54,1.37,1.17,1.72,0.94c0.45-0.29-0.48-1.62-0.52-3.93     c-0.02-0.91-0.06-3.2,1.36-4.64c0.42-0.43,0.72-0.53,1.07-0.9c0.43,1.67,1.55,3.23,3.12,4.05c1.6,0.83,3.38-1.24,7.54-1.04     c0.08,0,0.15,0.01,0.19,0.01c0.26,0.03,0.65,0.1,1.1,0.25c2.44,0.82,2.93,2.88,4.48,2.86c0.33,0,0.64-0.08,0.9-0.17     c0.02,0.19,0.03,0.4,0.03,0.65c0,0.19,0,0.33-0.02,0.54c-0.07,0.83-0.27,1.49-0.43,1.92c-0.08,0.17-0.16,0.38-0.08,0.48     c0.16,0.17,0.84-0.09,1.31-0.47c0.8-0.64,1.02-1.64,1.21-2.51c0.17-0.75,0.06-0.75,0.24-1.7c0.21-1.08,0.45-1.6,0.5-1.88     c0.46-0.53,0.73-0.48,1.2-1.23C38.01,11.75,38.44,10.7,38.26,9.81z"/></g><g><path class="st18" d="M15.77,16.86c-0.04,0.05-0.08,0.13-0.12,0.22c-0.08,0.21-0.13,0.56-0.01,0.67     c0.25,0.23,0.99-0.79,2.16-0.89c1.06-0.1,1.62,0.62,1.95,0.32c0.31-0.29,0.15-1.3-0.49-1.68c-0.28-0.17-0.58-0.17-0.74-0.15     c-0.38,0.02-1.23,0.11-2.01,0.73C16.16,16.34,15.93,16.62,15.77,16.86z"/></g><g><path class="st18" d="M30.79,16.86c0.04,0.05,0.08,0.13,0.12,0.22c0.08,0.21,0.13,0.56,0.01,0.67c-0.25,0.23-0.99-0.79-2.16-0.89     c-1.06-0.1-1.62,0.62-1.95,0.32c-0.31-0.29-0.15-1.3,0.49-1.68c0.28-0.17,0.58-0.17,0.74-0.15c0.38,0.02,1.23,0.11,2.01,0.73     C30.4,16.34,30.63,16.62,30.79,16.86z"/></g></g><g><path class="st19" d="M35.5,38.32c-2.24-0.96-5.95-2.23-10.7-2.4c-4.69-0.17-8.44,0.79-10.74,1.58c-0.74,0.22-2.21,0.78-3.58,2.14    c-0.52,0.52-1.56,1.69-2.13,3.51c-0.25,0.81-0.39,1.66-0.39,2.55v0h32.05v0c-0.01-0.83-0.17-3.89-2.51-6.06    C36.83,39.01,36.12,38.59,35.5,38.32z"/></g><g><path class="st10" d="M27.44,40.58c0.62-1.35,1.24-2.69,1.86-4.04l-2.25-2.56l-2.2,1.66h-1.65l-2.09-1.58l-2.25,2.56    c0.62,1.35,1.24,2.69,1.86,4.04c1.09-1.19,2.19-2.37,3.28-3.56h0.23C25.31,38.26,26.38,39.42,27.44,40.58z"/></g><g><circle class="st20" cx="24.13" cy="39.66" r="0.6"/></g><g><circle class="st20" cx="24.13" cy="43.94" r="0.6"/></g></g></svg>