<?xml version="1.0" ?><svg id="Layer_1" style="enable-background:new 0 0 48 48;" version="1.1" viewBox="0 0 48 48" xml:space="preserve" xmlns="http://www.w3.org/2000/svg" xmlns:xlink="http://www.w3.org/1999/xlink"><style type="text/css">
	.st0{fill:#F9B17B;}
	.st1{fill:#F9AE7B;}
	.st2{opacity:0.5;}
	.st3{fill:#F69164;}
	.st4{fill:#603813;}
	.st5{fill:#3B2314;}
	.st6{fill:#FFFFFF;}
	.st7{fill:#009345;}
	.st8{fill:#F8B677;}
	.st9{fill:#8A5D3B;}
	.st10{fill:#A87C4F;}
	.st11{fill:#321B0F;}
	.st12{fill:#404041;}
	.st13{fill:#929497;}
	.st14{fill:#754C28;}
	.st15{fill:#009687;}
	.st16{fill:#C3996B;}
	.st17{fill:#FAAF40;}
	.st18{fill:#E89E3C;}
	.st19{fill:#D0D2D3;}
	.st20{fill:#58595B;}
	.st21{fill:#EAA476;}
	.st22{fill:#E29C75;}
	.st23{fill:#D5855B;}
	.st24{fill:#F05A28;}
	.st25{fill:#F6921E;}
	.st26{fill:#783340;}
	.st27{fill:#843A42;}
	.st28{fill:#6D6E70;}
	.st29{fill:#EE4036;}
	.st30{fill:#FDED16;}
	.st31{fill:#231F20;}
	.st32{fill:#885A3D;}
	.st33{fill:#5C3418;}
	.st34{fill:#C49291;}
	.st35{fill:#262261;}
	.st36{fill:#E6E7E8;}
</style><g><g><g><g><path class="st0" d="M35.73,22.19H12.36c-1.29,0-2.34-1.05-2.34-2.34V19.3c0-1.29,1.05-2.34,2.34-2.34h23.38      c1.29,0,2.34,1.05,2.34,2.34v0.55C38.08,21.14,37.03,22.19,35.73,22.19z"/></g></g><g><g><rect class="st1" height="5.39" width="5.94" x="21.18" y="29.65"/></g></g><g class="st2"><g><path class="st3" d="M24.71,25.1c-0.1-0.03-0.2-0.06-0.3-0.08c-0.65-0.02-1.3,0-1.95,0.05c-0.43,0.08-0.86,0.17-1.28,0.26v6.58      c0.88,0.26,1.6,0.36,2,0.41c0.38,0.05,0.81,0.08,1.3,0.06c0.42-0.01,0.81-0.05,1.14-0.11c0.3-0.04,0.85-0.13,1.53-0.34      c0-0.04,0-0.08,0-0.12v-6.34C26.31,25.44,25.49,25.32,24.71,25.1z"/></g></g><g><g><path class="st0" d="M25.58,30.81c-0.34,0.05-0.74,0.1-1.17,0.11c-0.5,0.01-0.94-0.02-1.33-0.06c-1.04-0.11-4.22-0.59-6.72-3.17      c-0.48-0.49-1.74-1.82-2.41-3.98c-0.28-0.91-0.44-1.88-0.44-2.89v-7.47c0-5.36,4.35-9.71,9.71-9.71h1.62      c5.36,0,9.71,4.35,9.71,9.71v7.47c-0.02,0.8-0.21,4.09-2.84,6.87C29.33,30.2,26.44,30.69,25.58,30.81z"/></g></g></g><g><g><path class="st4" d="M32.53,17.06c-1.51-0.4-3.08-0.66-4.69-0.77c-0.47-0.03-0.83-0.41-0.81-0.87c0,0,0,0,0,0     c0.02-0.45,0.46-0.81,0.96-0.77c1.71,0.12,3.37,0.4,4.98,0.83c0.47,0.13,0.73,0.59,0.59,1.02l0,0     C33.42,16.93,32.96,17.17,32.53,17.06z"/></g></g><g><g><path class="st4" d="M20.37,16.36c-1.6,0.06-3.17,0.28-4.7,0.64c-0.44,0.1-0.89-0.16-1.02-0.59c0,0,0,0,0,0     c-0.12-0.44,0.15-0.9,0.63-1.01c1.62-0.38,3.29-0.61,4.99-0.68c0.5-0.02,0.92,0.35,0.93,0.8c0,0,0,0,0,0     C21.21,15.97,20.83,16.34,20.37,16.36z"/></g></g><g><g><ellipse class="st5" cx="29.79" cy="19.65" rx="1.2" ry="1.62"/></g></g><g><g><ellipse class="st5" cx="18.85" cy="19.65" rx="1.2" ry="1.62"/></g></g><g><g><path class="st6" d="M26.05,27.31h-3.14c-0.88,0-1.6-0.72-1.6-1.6v-0.19h6.33v0.19C27.65,26.6,26.93,27.31,26.05,27.31z"/></g></g><g><g><path class="st7" d="M32.35,35.79h-16.7c-4.24,0-7.67,3.44-7.67,7.67v0.9h32.05v-0.9C40.02,39.23,36.59,35.79,32.35,35.79z"/></g></g><g><g><path class="st8" d="M32.01,35.88c-1.67,0.66-4.51,1.55-8.12,1.52c-3.41-0.03-6.1-0.87-7.73-1.52c1.64-0.65,4.33-1.48,7.73-1.52     C27.5,34.33,30.34,35.21,32.01,35.88z"/></g></g><g><g><path class="st9" d="M24.65,24.03c-0.02,0-0.03,0-0.05,0c-1.69-0.35-2.46-0.74-2.48-1.26c-0.02-0.35,0.29-0.55,0.62-0.77     c0.29-0.19,0.64-0.42,0.9-0.8c0.4-0.62,0.45-1.48,0.14-2.58c-0.04-0.13,0.04-0.26,0.16-0.29c0.12-0.03,0.26,0.04,0.29,0.16     c0.35,1.23,0.28,2.23-0.2,2.97c-0.31,0.46-0.72,0.74-1.03,0.94c-0.18,0.12-0.41,0.27-0.4,0.35c0,0.02,0.04,0.4,2.11,0.82     c0.13,0.03,0.21,0.15,0.18,0.28C24.86,23.95,24.76,24.03,24.65,24.03z"/></g></g></g></svg>