<svg width="413" height="130" viewBox="0 0 413 130" fill="none" xmlns="http://www.w3.org/2000/svg">
<path d="M0 5C0 2.23858 2.23858 0 5 0H408C410.761 0 413 2.23858 413 5V125C413 127.761 410.761 130 408 130H5C2.23858 130 0 127.761 0 125V5Z" fill="white"/>
<path d="M83.6797 114C81.7318 114 79.7695 113.542 77.793 112.625C75.8164 111.737 73.6823 110.462 71.3906 108.801C69.2995 107.34 67.2227 105.736 65.1602 103.988C60.319 99.9779 55.8932 97.1419 51.8828 95.4805C49.5625 94.5065 47.0703 94.0195 44.4062 94.0195H43.418C43.2461 94.0195 42.9023 94.0482 42.3867 94.1055L55.4922 33.1328C51.5391 34.7656 48.5026 37.2005 46.3828 40.4375C44.263 43.6458 43.2031 47.599 43.2031 52.2969C43.2031 54.1016 43.4036 55.5768 43.8047 56.7227C43.9193 57.0951 44.0625 57.4245 44.2344 57.7109C44.349 57.9115 44.4062 58.112 44.4062 58.3125C41.2266 58.3125 38.9062 57.668 37.4453 56.3789C35.8125 55.0039 34.9961 52.7982 34.9961 49.7617C34.9961 47.8424 35.4115 45.9518 36.2422 44.0898C37.0729 42.1992 38.2474 40.3802 39.7656 38.6328C41.2266 36.9427 42.9453 35.3815 44.9219 33.9492C46.9271 32.4883 49.0755 31.2279 51.3672 30.168C56.237 27.9622 61.0781 26.8594 65.8906 26.8594C66.9505 26.8594 68.125 26.931 69.4141 27.0742L55.8789 90.2383C57.2826 90.5534 58.7005 91.026 60.1328 91.6562C61.5938 92.2865 63.2552 93.1029 65.1172 94.1055L69.9297 96.6836C73.6536 98.7174 77.0195 100.121 80.0273 100.895C81.7461 101.353 83.5508 101.582 85.4414 101.582C88.1055 101.582 90.569 101.109 92.832 100.164C92.3164 104.461 91.2708 107.827 89.6953 110.262C88.9219 111.465 88.0195 112.382 86.9883 113.012C85.9857 113.671 84.8828 114 83.6797 114ZM84.625 93.5898C81.875 93.5898 79.4688 93.1745 77.4062 92.3438C75.3438 91.5417 73.6393 90.3958 72.293 88.9062C71.0039 87.5026 70.0299 85.8698 69.3711 84.0078C68.7409 82.1458 68.4258 80.1693 68.4258 78.0781C68.4258 75.7578 68.7982 73.3945 69.543 70.9883C70.2878 68.5534 71.362 66.2904 72.7656 64.1992C74.1979 62.0221 75.9167 60.1602 77.9219 58.6133C79.9557 57.0664 82.2188 55.9635 84.7109 55.3047C82.8776 53.987 81.5169 52.4115 80.6289 50.5781C79.7695 48.7448 79.3398 46.7969 79.3398 44.7344C79.3398 42.4714 79.8125 40.2227 80.7578 37.9883C81.7318 35.7253 83.0781 33.6914 84.7969 31.8867C86.5729 29.9961 88.6354 28.5208 90.9844 27.4609C93.362 26.3724 95.9115 25.8281 98.6328 25.8281C100.38 25.8281 102.027 26.0716 103.574 26.5586C105.121 27.0169 106.453 27.7044 107.57 28.6211C108.745 29.5664 109.647 30.7266 110.277 32.1016C110.908 33.4766 111.223 35.0521 111.223 36.8281C111.223 38.1172 111.051 39.3203 110.707 40.4375C110.363 41.5547 109.891 42.5286 109.289 43.3594C108.688 44.1901 107.986 44.8346 107.184 45.293C106.382 45.7513 105.551 45.9805 104.691 45.9805C103.087 45.9805 101.712 45.1927 100.566 43.6172C101.053 43.4453 101.54 43.1016 102.027 42.5859C102.514 42.0417 102.944 41.3971 103.316 40.6523C103.66 39.9362 103.932 39.1628 104.133 38.332C104.333 37.5013 104.434 36.6992 104.434 35.9258C104.434 34.2643 103.932 32.9896 102.93 32.1016C102.099 31.3854 100.982 31.0273 99.5781 31.0273C98.3177 31.0273 97.1289 31.3711 96.0117 32.0586C94.8945 32.7461 93.9349 33.6914 93.1328 34.8945C92.3307 36.069 91.7005 37.401 91.2422 38.8906C90.8125 40.3802 90.5977 41.8984 90.5977 43.4453C90.5977 46.224 91.2852 48.6159 92.6602 50.6211C94.1497 52.8555 96.4271 54.388 99.4922 55.2188C96.513 55.8776 93.763 57.3958 91.2422 59.7734C88.9792 61.9505 87.1602 64.5716 85.7852 67.6367C84.4388 70.7018 83.7656 73.5664 83.7656 76.2305C83.7656 78.8945 84.4102 81 85.6992 82.5469C87.1315 84.2656 89.2656 85.125 92.1016 85.125C93.5052 85.125 94.9805 84.9388 96.5273 84.5664C98.1029 84.1654 99.6068 83.5924 101.039 82.8477C104.362 81.1576 106.811 78.9232 108.387 76.1445L110.406 77.0469C108.086 82.1172 104.548 86.1562 99.793 89.1641C97.5013 90.5964 95.0664 91.6849 92.4883 92.4297C89.9102 93.2031 87.2891 93.5898 84.625 93.5898ZM134.512 33.7344H133.48C128.267 33.7344 124.342 34.9232 121.707 37.3008C118.527 40.1654 116.938 44.9062 116.938 51.5234C116.938 53.3568 117.138 54.8177 117.539 55.9062C117.654 56.2786 117.797 56.6081 117.969 56.8945C118.083 57.0951 118.141 57.2956 118.141 57.4961C114.961 57.4961 112.641 56.8659 111.18 55.6055C109.547 54.2305 108.73 52.0247 108.73 48.9883C108.73 45.9518 109.289 43.0729 110.406 40.3516C111.552 37.6016 113.285 35.1953 115.605 33.1328C118.098 30.8984 121.263 29.1654 125.102 27.9336C128.969 26.7018 133.523 26.0859 138.766 26.0859C141.773 26.0859 144.652 26.2578 147.402 26.6016C148.262 26.6875 149.379 26.8451 150.754 27.0742C153.046 27.5039 155.251 27.7904 157.371 27.9336C158.402 28.0482 159.706 28.1055 161.281 28.1055C163.229 28.1055 165.091 27.9336 166.867 27.5898C168.643 27.2461 170.19 26.8021 171.508 26.2578C171.365 30.0964 170.376 32.918 168.543 34.7227C166.738 36.5273 164.06 37.4297 160.508 37.4297C158.589 37.4297 156.655 37.2721 154.707 36.957C152.759 36.6419 150.138 36.1549 146.844 35.4961L134.684 92H122.051L134.512 33.7344ZM160.422 45.4648C161.682 44.1758 162.656 42.9727 163.344 41.8555C164.06 40.7383 164.418 39.8216 164.418 39.1055C164.418 38.6758 164.289 38.3034 164.031 37.9883C163.773 37.6732 163.458 37.3724 163.086 37.0859C162.742 36.7708 162.484 36.5417 162.312 36.3984C161.654 35.8542 161.124 35.2383 160.723 34.5508C160.35 33.8633 160.164 33.0039 160.164 31.9727C160.164 31.1133 160.307 30.2969 160.594 29.5234C160.909 28.75 161.324 28.0911 161.84 27.5469C162.928 26.401 164.332 25.8281 166.051 25.8281C166.91 25.8281 167.727 25.9857 168.5 26.3008C169.273 26.5872 169.947 27.0026 170.52 27.5469C171.064 28.0911 171.479 28.75 171.766 29.5234C172.081 30.2682 172.238 31.0846 172.238 31.9727C172.238 33.0898 171.995 34.293 171.508 35.582C171.021 36.8711 170.333 38.1602 169.445 39.4492C167.44 42.2852 164.876 44.7201 161.754 46.7539L160.422 45.4648ZM190.242 93.5898C187.435 93.5898 184.9 93.2174 182.637 92.4727C180.374 91.7565 178.426 90.7109 176.793 89.3359C175.132 87.9609 173.857 86.3281 172.969 84.4375C172.109 82.5469 171.68 80.4557 171.68 78.1641C171.68 76.2448 171.98 74.4401 172.582 72.75C173.212 71.0312 174.086 69.5417 175.203 68.2812C176.32 67.0208 177.624 66.0469 179.113 65.3594C180.603 64.6432 182.178 64.2852 183.84 64.2852C185.902 64.2852 187.635 64.8008 189.039 65.832C190.443 66.8633 191.316 68.2812 191.66 70.0859C188.595 70.0859 186.16 70.9023 184.355 72.5352C183.496 73.3086 182.823 74.2539 182.336 75.3711C181.878 76.4883 181.648 77.7201 181.648 79.0664C181.648 81.6445 182.393 83.6927 183.883 85.2109C185.401 86.7005 187.435 87.4453 189.984 87.4453C191.503 87.4453 192.921 87.1732 194.238 86.6289C195.556 86.056 196.702 85.2826 197.676 84.3086C198.65 83.3346 199.395 82.1745 199.91 80.8281C200.454 79.4531 200.727 77.9922 200.727 76.4453C200.727 73.5807 199.753 70.6016 197.805 67.5078C197.031 66.3047 196.172 65.1302 195.227 63.9844C194.31 62.8099 193.021 61.263 191.359 59.3438C189.87 57.625 188.624 56.1354 187.621 54.875C186.618 53.6146 185.716 52.3255 184.914 51.0078C182.966 47.8281 181.992 44.7057 181.992 41.6406C181.992 39.349 182.479 37.2292 183.453 35.2812C184.427 33.3047 185.816 31.5859 187.621 30.125C189.426 28.6641 191.531 27.5326 193.938 26.7305C196.344 25.9284 198.936 25.5273 201.715 25.5273C206.441 25.5273 210.237 26.6445 213.102 28.8789C214.477 29.9674 215.522 31.2708 216.238 32.7891C216.983 34.3073 217.355 35.9974 217.355 37.8594C217.355 40.2943 216.74 42.2852 215.508 43.832C214.935 44.5768 214.219 45.1497 213.359 45.5508C212.529 45.9518 211.641 46.1523 210.695 46.1523C208.49 46.1523 206.699 45.2357 205.324 43.4023C206.441 42.6003 207.315 41.5404 207.945 40.2227C208.604 38.8763 208.934 37.444 208.934 35.9258C208.934 34.0352 208.375 32.5456 207.258 31.457C206.141 30.3398 204.608 29.7812 202.66 29.7812C201.486 29.7812 200.397 29.9961 199.395 30.4258C198.421 30.8555 197.59 31.4714 196.902 32.2734C196.186 33.0755 195.628 34.0208 195.227 35.1094C194.854 36.1979 194.668 37.3867 194.668 38.6758C194.668 40.5091 195.098 42.2708 195.957 43.9609C196.816 45.651 198.048 47.4128 199.652 49.2461C201.085 50.9362 202.632 52.612 204.293 54.2734C208.16 58.2839 210.896 62.194 212.5 66.0039C213.445 68.2669 213.918 70.7591 213.918 73.4805C213.918 76.3451 213.331 79.0091 212.156 81.4727C210.982 83.9076 209.306 86.0273 207.129 87.832C204.952 89.6654 202.417 91.0833 199.523 92.0859C196.63 93.0885 193.536 93.5898 190.242 93.5898ZM251.301 93.1602C247.749 93.1602 244.168 91.599 240.559 88.4766L239.828 92H227.195L239.141 36.0117L252.16 34.293L241.59 83.6211C243.194 84.7956 244.87 85.3828 246.617 85.3828C248.307 85.3828 249.911 84.8529 251.43 83.793C252.977 82.7331 254.395 81.2292 255.684 79.2812C258.061 75.7005 259.995 70.8021 261.484 64.5859C262.831 58.7708 263.504 52.7982 263.504 46.668C263.504 40.9388 262.329 36.6706 259.98 33.8633C257.803 31.3138 254.695 30.0391 250.656 30.0391C247.391 30.0391 244.354 30.526 241.547 31.5C238.74 32.474 236.305 33.8776 234.242 35.7109C232.122 37.6016 230.49 39.8789 229.344 42.543C228.198 45.207 227.625 48.1719 227.625 51.4375C227.625 53.2708 227.826 54.7318 228.227 55.8203C228.341 56.1927 228.484 56.5221 228.656 56.8086C228.771 57.0091 228.828 57.2096 228.828 57.4102C225.763 57.4102 223.428 56.7799 221.824 55.5195C220.22 54.2305 219.418 52.1393 219.418 49.2461C219.418 47.2695 219.805 45.3216 220.578 43.4023C221.352 41.4544 222.469 39.6068 223.93 37.8594C225.362 36.1406 227.081 34.5651 229.086 33.1328C231.12 31.6719 233.34 30.4115 235.746 29.3516C240.845 27.1172 246.316 26 252.16 26C257.574 26 262.129 27.1888 265.824 29.5664C269.204 31.7721 271.725 34.8372 273.387 38.7617C274.905 42.4857 275.664 46.6823 275.664 51.3516C275.664 54.6458 275.363 57.9831 274.762 61.3633C274.189 64.7435 273.358 68.0091 272.27 71.1602C271.181 74.2539 269.878 77.1471 268.359 79.8398C266.87 82.5039 265.223 84.8242 263.418 86.8008C261.556 88.8346 259.594 90.4102 257.531 91.5273C255.497 92.6159 253.421 93.1602 251.301 93.1602ZM302.52 92.5156C297.621 92.5156 293.84 91.1836 291.176 88.5195C288.225 85.569 286.75 81.0143 286.75 74.8555C286.75 72.4206 286.979 69.7135 287.438 66.7344C287.896 63.7552 288.555 60.776 289.414 57.7969C290.331 54.6172 291.462 51.5807 292.809 48.6875C294.184 45.7943 295.716 43.2591 297.406 41.082C301.331 36.069 305.728 33.5625 310.598 33.5625C311.486 33.5625 312.273 33.6198 312.961 33.7344C313.677 33.8203 314.422 34.0065 315.195 34.293C312.646 35.7826 310.125 39.0195 307.633 44.0039C305.341 48.6159 303.465 53.8151 302.004 59.6016C300.514 65.4167 299.77 70.6159 299.77 75.1992C299.77 78.293 300.171 80.7279 300.973 82.5039C301.832 84.4232 303.135 85.3828 304.883 85.3828C306.315 85.3828 307.762 84.8242 309.223 83.707C310.712 82.5898 312.173 81.0143 313.605 78.9805C314.98 77.0039 316.255 74.7122 317.43 72.1055C318.604 69.4701 319.621 66.6628 320.48 63.6836C322.342 57.2669 323.273 51.194 323.273 45.4648C323.273 42.7148 323.116 40.4089 322.801 38.5469C322.486 36.6849 321.927 35.138 321.125 33.9062C320.266 32.5885 319.105 31.6146 317.645 30.9844C316.184 30.3542 314.307 30.0391 312.016 30.0391C308.664 30.0391 305.456 30.569 302.391 31.6289C299.326 32.6602 296.633 34.1497 294.312 36.0977C291.906 38.1315 290.03 40.5521 288.684 43.3594C287.337 46.1667 286.664 49.2747 286.664 52.6836C286.664 53.9727 286.822 55.0898 287.137 56.0352C287.223 56.4076 287.323 56.6797 287.438 56.8516C287.523 57.0521 287.566 57.2383 287.566 57.4102C284.645 57.4102 282.424 56.8372 280.906 55.6914C279.417 54.5169 278.672 52.6263 278.672 50.0195C278.672 45.9805 280.362 42.0703 283.742 38.2891C287.065 34.6224 291.376 31.6862 296.676 29.4805C302.262 27.1602 308.077 26 314.121 26C321.454 26 326.854 28.1055 330.32 32.3164C333.414 36.0977 334.961 41.4974 334.961 48.5156C334.961 51.4661 334.689 54.5742 334.145 57.8398C333.6 61.1055 332.784 64.3138 331.695 67.4648C330.492 70.9023 329.003 74.1107 327.227 77.0898C325.479 80.069 323.46 82.6615 321.168 84.8672C315.868 89.9661 309.652 92.5156 302.52 92.5156ZM356.703 93.418C353.38 93.418 350.53 93.0169 348.152 92.2148C345.775 91.4414 343.798 90.2096 342.223 88.5195C340.618 86.8008 339.415 84.5664 338.613 81.8164C337.84 79.0378 337.453 75.6862 337.453 71.7617C337.453 67.3216 337.969 62.6953 339 57.8828C340.203 52.2969 341.922 47.2982 344.156 42.8867C346.763 37.7591 349.928 33.763 353.652 30.8984C357.892 27.6328 362.733 26 368.176 26C372.559 26 376.039 26.9167 378.617 28.75C381.453 30.7552 382.871 33.763 382.871 37.7734C382.871 40.2943 382.413 42.2279 381.496 43.5742C380.408 45.1211 378.803 45.8945 376.684 45.8945C375.796 45.8945 374.922 45.737 374.062 45.4219C373.232 45.1068 372.444 44.5052 371.699 43.6172C372.215 43.3594 372.716 42.9583 373.203 42.4141C373.69 41.8411 374.12 41.1823 374.492 40.4375C375.323 38.776 375.738 37.1289 375.738 35.4961C375.738 33.9206 375.337 32.6745 374.535 31.7578C373.59 30.6693 372.201 30.125 370.367 30.125C368.792 30.125 367.23 30.7122 365.684 31.8867C364.165 33.0326 362.704 34.6654 361.301 36.7852C359.954 38.819 358.708 41.1966 357.562 43.918C356.417 46.6393 355.443 49.5326 354.641 52.5977C353.839 55.6914 353.208 58.8424 352.75 62.0508C352.292 65.2591 352.062 68.3242 352.062 71.2461C352.062 73.4232 352.22 75.3281 352.535 76.9609C352.879 78.5938 353.423 79.9831 354.168 81.1289C355.801 83.6784 358.622 84.9531 362.633 84.9531C366.07 84.9531 369.264 84.194 372.215 82.6758C375.165 81.1289 377.686 78.9518 379.777 76.1445L381.797 77.0469C380.68 79.8542 379.133 82.3177 377.156 84.4375C375.208 86.5286 373.003 88.2617 370.539 89.6367C368.276 90.8971 365.941 91.8424 363.535 92.4727C361.129 93.1029 358.852 93.418 356.703 93.418Z" fill="#91D5FF"/>
</svg>
