<svg width="75" height="57" viewBox="0 0 75 57" fill="none" xmlns="http://www.w3.org/2000/svg">
<rect width="75" height="57" rx="5" fill="#3AB1FB"/>
<path d="M16 26.5C14.6193 26.5 13.5 27.6193 13.5 29C13.5 30.3807 14.6193 31.5 16 31.5V26.5ZM59.7678 30.7678C60.7441 29.7915 60.7441 28.2085 59.7678 27.2322L43.8579 11.3223C42.8816 10.346 41.2986 10.346 40.3223 11.3223C39.346 12.2986 39.346 13.8816 40.3223 14.8579L54.4645 29L40.3223 43.1421C39.346 44.1184 39.346 45.7014 40.3223 46.6777C41.2986 47.654 42.8816 47.654 43.8579 46.6777L59.7678 30.7678ZM16 31.5L58 31.5V26.5L16 26.5V31.5Z" fill="white"/>
</svg>
